<svg xmlns="http://www.w3.org/2000/svg" width="531.134" height="27.817" viewBox="0 0 531.134 27.817"><defs><style>.a{fill:#fff;}</style></defs><path class="a" d="M3.4-4.96h0a5.336,5.336,0,0,1-.52,1.22,1.175,1.175,0,0,1-.68.62h0a1.083,1.083,0,0,1-1.16-.24A1.35,1.35,0,0,1,.72-4.48h0A39.306,39.306,0,0,1,1.76-9.54q.72-2.66,1.68-5.32t2.1-5.16a49.357,49.357,0,0,1,2.34-4.54h0a.769.769,0,0,1,.46-.38.759.759,0,0,1,.46.02h0a2.068,2.068,0,0,1,.48-.28,1.412,1.412,0,0,1,.56-.12h0a.95.95,0,0,1,.26.04.656.656,0,0,1,.3.24,4.88,4.88,0,0,1,.38.58q.22.38.54,1.1h0q.56,2.04,1.3,4.2t1.54,4.32h0a1.849,1.849,0,0,1,.22-.06,1.849,1.849,0,0,0,.22-.06h0a4.348,4.348,0,0,1,1,.04.9.9,0,0,1,.76.56h0a1.022,1.022,0,0,1-.08,1.04,3.345,3.345,0,0,1-1.16.88h0q.52,1.28,1.04,2.5t1.08,2.38h0q.04.2.12.62a6.013,6.013,0,0,1,.1.84,2.943,2.943,0,0,1-.06.78.653.653,0,0,1-.32.48h0a.642.642,0,0,1-.58-.04,2.774,2.774,0,0,1-.58-.42,3.956,3.956,0,0,1-.5-.56,3.848,3.848,0,0,1-.34-.54h0q-.68-1.32-1.3-2.66t-1.18-2.7h0q-1.68.32-3.66.56t-3.9.32h0Q4.6-9.36,4.18-7.9T3.4-4.96Zm5.68-16.8h0a87.363,87.363,0,0,0-3.2,8.24h0a35.024,35.024,0,0,0,5.72-.68h0A73.877,73.877,0,0,1,9.08-21.76Z" transform="translate(0 27.293)"/><path class="a" transform="translate(0 27.293)"/><path class="a" d="M53.48-5.92h0a1.535,1.535,0,0,1-.72.58,2.206,2.206,0,0,1-.72.14h0A2.021,2.021,0,0,1,51-5.58a1.5,1.5,0,0,1-.6-.7h0q-.24-.68-.52-1.52t-.54-1.7q-.26-.86-.54-1.68t-.52-1.5h0q-.8,1.4-1.52,2.82t-1.6,2.94h0a2.126,2.126,0,0,1-.92.82,1.816,1.816,0,0,1-.88.18h0a1.605,1.605,0,0,1-.94-.4A4.416,4.416,0,0,1,41.76-7h0a11.708,11.708,0,0,1-.88-1.86q-.44-1.14-.82-2.4t-.7-2.52q-.32-1.26-.52-2.26h0a3.167,3.167,0,0,1,.02-1.28.8.8,0,0,1,.7-.68h0a1.663,1.663,0,0,1,1.24.46,1.777,1.777,0,0,1,.64.98h0q.16.8.38,1.74t.48,1.9q.26.96.52,1.88t.54,1.64h0q.6-.96,1.34-2.22t1.42-2.44q.68-1.18,1.24-2.06a3.783,3.783,0,0,1,.88-1.08h0a.72.72,0,0,1,.68.02,1.305,1.305,0,0,1,.64.5h0a21.278,21.278,0,0,1,1.46,3.86q.58,2.1,1.14,3.9h0a14.077,14.077,0,0,0,1.2-1.9Q54-12,54.6-13.32t1.12-2.64q.52-1.32.84-2.36h0q.32-1.08.88-1.04h0a2.43,2.43,0,0,1,1.24.48q.52.4.4.84h0a34.4,34.4,0,0,1-2.28,6.46A38.524,38.524,0,0,1,53.48-5.92Z" transform="translate(0 27.293)"/><path class="a" d="M75.16-18.96h0a5.124,5.124,0,0,1,2.02,1.32,6.332,6.332,0,0,1,1.26,1.98,7.024,7.024,0,0,1,.5,2.26,6.016,6.016,0,0,1-.26,2.16h0a13.159,13.159,0,0,1-1.12,2.2A10.018,10.018,0,0,1,76-7.12a7.37,7.37,0,0,1-2,1.36,5.818,5.818,0,0,1-2.48.52h0A4.8,4.8,0,0,1,68.76-6,5.41,5.41,0,0,1,67-7.96a7.634,7.634,0,0,1-.82-2.72,11.061,11.061,0,0,1,.06-3.04h0a11.091,11.091,0,0,1,.54-2.18,7.377,7.377,0,0,1,.98-1.88,5.472,5.472,0,0,1,1.38-1.34,3.135,3.135,0,0,1,1.78-.52h0a5.729,5.729,0,0,1,1.4.22,6.684,6.684,0,0,1,1.56.62h0A1.111,1.111,0,0,1,75.16-18.96Zm-1.52,2.92h0a12.42,12.42,0,0,1-1.02-.74,1.743,1.743,0,0,0-1.02-.46h0a1.366,1.366,0,0,0-.94.44,4.668,4.668,0,0,0-.8,1.02,8.78,8.78,0,0,0-.58,1.18,6.629,6.629,0,0,0-.32.96h0a9.851,9.851,0,0,0-.16,1.44,6.918,6.918,0,0,0,.12,1.66,3.845,3.845,0,0,0,.62,1.48,2.5,2.5,0,0,0,1.38.94h0a2.613,2.613,0,0,0,1.32-.02,4.781,4.781,0,0,0,1.5-.66,6.226,6.226,0,0,0,1.4-1.28,5.889,5.889,0,0,0,1.02-1.84h0a3.847,3.847,0,0,0,.02-2.42,2.844,2.844,0,0,0-1.54-1.82h0a.959.959,0,0,1-.56.2A1,1,0,0,1,73.64-16.04Z" transform="translate(0 27.293)"/><path class="a" d="M98.08-18.8h0q-.72.4-1.5.84a14.833,14.833,0,0,0-1.56,1.02,10.052,10.052,0,0,0-1.48,1.36,8.9,8.9,0,0,0-1.26,1.86h0a10.609,10.609,0,0,0-1.08,3.1,25.417,25.417,0,0,0-.36,3.1h0a3.478,3.478,0,0,1-.34,1.46,1.048,1.048,0,0,1-.94.74h0a1.379,1.379,0,0,1-1.22-.78,5.2,5.2,0,0,1-.62-1.5h0q-.68-2.84-1.12-5.62t-.76-5.54h0q0-.56.34-.72a1.487,1.487,0,0,1,.78-.12h0a2.761,2.761,0,0,1,.92.24.843.843,0,0,1,.52.64h0q.16,1.48.4,3.1t.48,2.78h0a7.024,7.024,0,0,1,.88-2.64,10.333,10.333,0,0,1,1.78-2.32,10.507,10.507,0,0,1,2.4-1.76,8.97,8.97,0,0,1,2.74-.96h0a3.114,3.114,0,0,1,1,0,.926.926,0,0,1,.56.28h0a.751.751,0,0,1,.06.64A1.381,1.381,0,0,1,98.08-18.8Z" transform="translate(0 27.293)"/><path class="a" d="M107.84-23.72h0q.2,4.36.68,9.02t1.04,8.9h0q.12,1.76-.96,1.8h0a.8.8,0,0,1-.48-.18,2.076,2.076,0,0,1-.44-.46,6.589,6.589,0,0,1-.38-.6,1.784,1.784,0,0,1-.22-.56h0q-.32-2.04-.6-4.32t-.5-4.58q-.22-2.3-.38-4.5t-.2-4.04h0a7.946,7.946,0,0,1,.28-1.62.764.764,0,0,1,.84-.62h0a1.139,1.139,0,0,1,.98.54A2.622,2.622,0,0,1,107.84-23.72Z" transform="translate(0 27.293)"/><path class="a" d="M124.6-18.96l-1-6.32a2.558,2.558,0,0,1,.1-1.32,1,1,0,0,1,.9-.68h0a1.289,1.289,0,0,1,1.06.32,1.764,1.764,0,0,1,.58,1.04h0q.8,4.6,1.5,9.14T129-7.88h0a2.252,2.252,0,0,1-.16,1.58,1.982,1.982,0,0,1-.76.62h0a1.061,1.061,0,0,1-.9,0,.99.99,0,0,1-.54-.72h0l-.04-.24-.16.04a9.14,9.14,0,0,1-2.76.54,8.263,8.263,0,0,1-2.76-.34,6.221,6.221,0,0,1-2.34-1.3,4.991,4.991,0,0,1-1.46-2.3h0a5.572,5.572,0,0,1,1.2-5.6h0a10.1,10.1,0,0,1,2.28-1.88,11.544,11.544,0,0,1,3.28-1.32h0ZM119.56-11h0a2.672,2.672,0,0,0,.88,1.48,3.471,3.471,0,0,0,1.52.7,5.858,5.858,0,0,0,1.88.06,9.921,9.921,0,0,0,1.96-.44h0l.36-.12-1.12-7.04-.8.2a9.215,9.215,0,0,0-1.78.74,7.6,7.6,0,0,0-1.66,1.18,4.812,4.812,0,0,0-1.1,1.52A2.475,2.475,0,0,0,119.56-11Z" transform="translate(0 27.293)"/><path class="a" transform="translate(0 27.293)"/><path class="a" d="M164.56-5.92h0a1.535,1.535,0,0,1-.72.58,2.206,2.206,0,0,1-.72.14h0a2.021,2.021,0,0,1-1.04-.38,1.5,1.5,0,0,1-.6-.7h0q-.24-.68-.52-1.52t-.54-1.7q-.26-.86-.54-1.68t-.52-1.5h0q-.8,1.4-1.52,2.82t-1.6,2.94h0a2.126,2.126,0,0,1-.92.82,1.816,1.816,0,0,1-.88.18h0a1.605,1.605,0,0,1-.94-.4,4.416,4.416,0,0,1-.66-.68h0a11.707,11.707,0,0,1-.88-1.86q-.44-1.14-.82-2.4t-.7-2.52q-.32-1.26-.52-2.26h0a3.167,3.167,0,0,1,.02-1.28.8.8,0,0,1,.7-.68h0a1.663,1.663,0,0,1,1.24.46,1.777,1.777,0,0,1,.64.98h0q.16.8.38,1.74t.48,1.9q.26.96.52,1.88t.54,1.64h0q.6-.96,1.34-2.22t1.42-2.44q.68-1.18,1.24-2.06a3.783,3.783,0,0,1,.88-1.08h0a.72.72,0,0,1,.68.02,1.305,1.305,0,0,1,.64.5h0a21.278,21.278,0,0,1,1.46,3.86q.58,2.1,1.14,3.9h0a14.077,14.077,0,0,0,1.2-1.9q.64-1.18,1.24-2.5t1.12-2.64q.52-1.32.84-2.36h0q.32-1.08.88-1.04h0a2.43,2.43,0,0,1,1.24.48q.52.4.4.84h0a34.4,34.4,0,0,1-2.28,6.46A38.525,38.525,0,0,1,164.56-5.92Z" transform="translate(0 27.293)"/><path class="a" d="M183.76-21.32h0a.543.543,0,0,1-.56.44q-.48.04-.8.04h0a18.856,18.856,0,0,0-2.06.2,19.072,19.072,0,0,0-2.22.48h0a1.33,1.33,0,0,1-1.04-.12,1.361,1.361,0,0,1-.68-1.12h0a.645.645,0,0,1,.24-.52,2.888,2.888,0,0,1,.56-.36h0a7.069,7.069,0,0,1,1.24-.42,10.8,10.8,0,0,1,1.46-.26,10.379,10.379,0,0,1,1.42-.06,4.905,4.905,0,0,1,1.12.14h0a2.334,2.334,0,0,1,1.02.6A1.1,1.1,0,0,1,183.76-21.32ZM182.84-8h0a3.656,3.656,0,0,1,.3,1.38,1.077,1.077,0,0,1-.42,1.02h0a1.045,1.045,0,0,1-1.2-.04,2.509,2.509,0,0,1-.96-1.08h0a7.617,7.617,0,0,1-.68-2.06q-.24-1.22-.36-2.42t-.14-2.24q-.02-1.04-.02-1.56h0a2.372,2.372,0,0,1,.32-1.04,1.053,1.053,0,0,1,.72-.56h0a1.466,1.466,0,0,1,1.16.66,2.4,2.4,0,0,1,.4,1.54h0q0,.72.04,1.6t.16,1.76q.12.88.28,1.7A5.986,5.986,0,0,0,182.84-8Z" transform="translate(0 27.293)"/><path class="a" d="M199.8-15.72h0a2.9,2.9,0,0,1,1.52.36,1.314,1.314,0,0,1,.76,1.24h0a.936.936,0,0,1-.74.86,4.256,4.256,0,0,1-1.06.18h0q-.8,0-1.72.04t-1.88.12h0q-.08,1.32-.14,2.48t-.1,2.06q-.04.9-.04,1.46a1.993,1.993,0,0,0,.04.6h0a11.248,11.248,0,0,0,1.9-.54q1.02-.38,2.04-.84t2-.96q.98-.5,1.86-.94h0a1.082,1.082,0,0,1,.74-.12.515.515,0,0,1,.42.36h0a2.312,2.312,0,0,1-.12,1.08,2.821,2.821,0,0,1-.72,1.16h0a17.953,17.953,0,0,1-1.58,1.1,24.006,24.006,0,0,1-2.1,1.18,22.261,22.261,0,0,1-2.26.98,8.074,8.074,0,0,1-2.02.5h0a2.15,2.15,0,0,1-2-.72,3.637,3.637,0,0,1-.76-2.12h0q-.08-1.28-.02-2.96t.14-3.56h0q-.76.08-1.46.14t-1.34.14h0a3.182,3.182,0,0,1-1.14-.24.9.9,0,0,1-.62-.92h0a1.549,1.549,0,0,1,.2-.64,1.335,1.335,0,0,1,.88-.6h0q1.64-.28,3.64-.48h0q.12-1.88.28-3.64t.28-3.2h0a1.749,1.749,0,0,1,.28-.84.657.657,0,0,1,.52-.36h0a2.194,2.194,0,0,1,1.3.34,1.056,1.056,0,0,1,.62.86h0q-.16,1.36-.3,3.08t-.26,3.52h0q.8-.08,1.54-.1T199.8-15.72Z" transform="translate(0 27.293)"/><path class="a" d="M213.84-22.72h0q0,.96-.02,2.16t0,2.48q.02,1.28.04,2.64t.06,2.6h0a11.632,11.632,0,0,1,.96-1.58,7.8,7.8,0,0,1,1.26-1.38,6.382,6.382,0,0,1,1.48-.96,4.007,4.007,0,0,1,1.7-.36h0a2.728,2.728,0,0,1,1.78.64,5.7,5.7,0,0,1,1.36,1.7,12.664,12.664,0,0,1,.98,2.36,25.465,25.465,0,0,1,.66,2.64q.26,1.34.38,2.56t.2,2.1h0a1.614,1.614,0,0,1-.32,1.04.949.949,0,0,1-.76.4h0a1.291,1.291,0,0,1-.78-.42,2.374,2.374,0,0,1-.66-1.02h0a13.263,13.263,0,0,1-.24-1.4q-.12-.92-.28-1.98t-.4-2.14a12.9,12.9,0,0,0-.58-1.94,3.9,3.9,0,0,0-.82-1.34,1.193,1.193,0,0,0-1.12-.36h0a2.743,2.743,0,0,0-1.74,1.4,14.267,14.267,0,0,0-1.28,2.72,25.262,25.262,0,0,0-.88,3.08q-.34,1.56-.5,2.52h0a2.05,2.05,0,0,1-.42.98.8.8,0,0,1-.58.26h0a.745.745,0,0,1-.58-.32,3.906,3.906,0,0,1-.48-.78,7.566,7.566,0,0,1-.38-.96,4.548,4.548,0,0,1-.2-.86h0q-.2-2.16-.32-4.14t-.18-3.98q-.06-2-.06-4.1t.08-4.5h0q0-2,1.44-1.8h0a1.263,1.263,0,0,1,.84.7A2.623,2.623,0,0,1,213.84-22.72Z" transform="translate(0 27.293)"/><path class="a" transform="translate(0 27.293)"/><path class="a" d="M255.84-15.72h0a2.9,2.9,0,0,1,1.52.36,1.314,1.314,0,0,1,.76,1.24h0a.936.936,0,0,1-.74.86,4.256,4.256,0,0,1-1.06.18h0q-.8,0-1.72.04t-1.88.12h0q-.08,1.32-.14,2.48t-.1,2.06q-.04.9-.04,1.46a1.994,1.994,0,0,0,.04.6h0a11.248,11.248,0,0,0,1.9-.54q1.02-.38,2.04-.84t2-.96q.98-.5,1.86-.94h0a1.082,1.082,0,0,1,.74-.12.515.515,0,0,1,.42.36h0a2.312,2.312,0,0,1-.12,1.08,2.821,2.821,0,0,1-.72,1.16h0a17.951,17.951,0,0,1-1.58,1.1,24,24,0,0,1-2.1,1.18,22.261,22.261,0,0,1-2.26.98,8.074,8.074,0,0,1-2.02.5h0a2.15,2.15,0,0,1-2-.72,3.637,3.637,0,0,1-.76-2.12h0q-.08-1.28-.02-2.96t.14-3.56h0q-.76.08-1.46.14t-1.34.14h0a3.182,3.182,0,0,1-1.14-.24.9.9,0,0,1-.62-.92h0a1.55,1.55,0,0,1,.2-.64,1.335,1.335,0,0,1,.88-.6h0q1.64-.28,3.64-.48h0q.12-1.88.28-3.64t.28-3.2h0A1.749,1.749,0,0,1,251-23a.657.657,0,0,1,.52-.36h0a2.194,2.194,0,0,1,1.3.34,1.056,1.056,0,0,1,.62.86h0q-.16,1.36-.3,3.08t-.26,3.52h0q.8-.08,1.54-.1T255.84-15.72Z" transform="translate(0 27.293)"/><path class="a" d="M279.04-18.8h0q-.72.4-1.5.84a14.832,14.832,0,0,0-1.56,1.02,10.053,10.053,0,0,0-1.48,1.36,8.9,8.9,0,0,0-1.26,1.86h0a10.61,10.61,0,0,0-1.08,3.1,25.417,25.417,0,0,0-.36,3.1h0a3.478,3.478,0,0,1-.34,1.46,1.048,1.048,0,0,1-.94.74h0a1.379,1.379,0,0,1-1.22-.78,5.2,5.2,0,0,1-.62-1.5h0q-.68-2.84-1.12-5.62t-.76-5.54h0q0-.56.34-.72a1.487,1.487,0,0,1,.78-.12h0a2.761,2.761,0,0,1,.92.24.843.843,0,0,1,.52.64h0q.16,1.48.4,3.1t.48,2.78h0a7.024,7.024,0,0,1,.88-2.64,10.333,10.333,0,0,1,1.78-2.32,10.507,10.507,0,0,1,2.4-1.76,8.97,8.97,0,0,1,2.74-.96h0a3.114,3.114,0,0,1,1,0,.926.926,0,0,1,.56.28h0a.751.751,0,0,1,.06.64A1.381,1.381,0,0,1,279.04-18.8Z" transform="translate(0 27.293)"/><path class="a" d="M288.88-16.84h0q-.24,1.08-.48,2.38t-.34,2.5a11.651,11.651,0,0,0,0,2.16,2.226,2.226,0,0,0,.5,1.36h0a2.032,2.032,0,0,0,1.56-.58,10.473,10.473,0,0,0,1.72-1.78,16.791,16.791,0,0,0,1.52-2.34,11.728,11.728,0,0,0,.96-2.22h0q.16-.48.28-1a4.789,4.789,0,0,0,.12-1.08h0a.811.811,0,0,1,.42-.62,1.734,1.734,0,0,1,.7-.34h0a.752.752,0,0,1,.46.08,1.664,1.664,0,0,1,.48.34,2.681,2.681,0,0,1,.4.52,1.19,1.19,0,0,1,.18.62h0q.08,1.2.24,2.64t.38,2.88q.22,1.44.46,2.8t.48,2.44h0a1.247,1.247,0,0,1-.24,1,1.457,1.457,0,0,1-.8.68h0a1.2,1.2,0,0,1-.74-.08,1.11,1.11,0,0,1-.58-.64h0a11.526,11.526,0,0,1-.38-1.38q-.18-.82-.32-1.72t-.26-1.72q-.12-.82-.16-1.38h0a19.523,19.523,0,0,1-1.42,2.18,15.994,15.994,0,0,1-1.76,2,7.835,7.835,0,0,1-1.96,1.4,3.745,3.745,0,0,1-2.1.38h0q-1.6-.2-2.44-3h0a8.549,8.549,0,0,1-.3-2.48,22.78,22.78,0,0,1,.2-2.7q.18-1.34.44-2.54t.46-1.96h0a1.318,1.318,0,0,1,.32-.58.54.54,0,0,1,.56-.18h0a1.942,1.942,0,0,1,1.1.72A1.355,1.355,0,0,1,288.88-16.84Z" transform="translate(0 27.293)"/><path class="a" d="M315.52-14.4h0a13.911,13.911,0,0,1-3.36,1.42,14.448,14.448,0,0,1-3.88.5h0a3.569,3.569,0,0,0,.8,2.22,2.888,2.888,0,0,0,1.8.98h0a4.268,4.268,0,0,0,1.3-.04,5.366,5.366,0,0,0,1.24-.38,7.263,7.263,0,0,0,1.06-.58,7.665,7.665,0,0,0,.84-.64h0a1.8,1.8,0,0,1,.76-.42,1.033,1.033,0,0,1,.6-.02h0q.56.2.4,1.2h0a6.129,6.129,0,0,1-1.84,2.18,6,6,0,0,1-2.68,1.14h0a5.934,5.934,0,0,1-2.64-.12,5.516,5.516,0,0,1-2.44-1.4h0a6.166,6.166,0,0,1-1.4-2.16,9.421,9.421,0,0,1-.6-2.56h0a6.044,6.044,0,0,1,.22-2.36,5.566,5.566,0,0,1,1.06-1.98,5.787,5.787,0,0,1,1.8-1.42,6.16,6.16,0,0,1,2.52-.64h0a5.589,5.589,0,0,1,3.12.64,4.2,4.2,0,0,1,1.96,2.12h0a2.1,2.1,0,0,1,.18,1.32A1.741,1.741,0,0,1,315.52-14.4Zm-4.6-2.72h0a4.281,4.281,0,0,0-.86.28,3.782,3.782,0,0,0-.84.5,4.1,4.1,0,0,0-.68.68,1.57,1.57,0,0,0-.34.86h0a10.427,10.427,0,0,0,1.5-.12q.82-.12,1.6-.3a12.334,12.334,0,0,0,1.44-.42,5.67,5.67,0,0,0,1.1-.52h0a1.539,1.539,0,0,0-1.18-.94A4.493,4.493,0,0,0,310.92-17.12Z" transform="translate(0 27.293)"/><path class="a" transform="translate(0 27.293)"/><path class="a" d="M348.28-15.28h0a1.03,1.03,0,0,1-.68.1.986.986,0,0,1-.68-.5h0a1.905,1.905,0,0,0-1.56-.84h0a2.951,2.951,0,0,0-1.5.38,4.133,4.133,0,0,0-1.16,1,5.722,5.722,0,0,0-.82,1.38,6.538,6.538,0,0,0-.44,1.52h0a3.163,3.163,0,0,0,.48,2.36,2.42,2.42,0,0,0,2.12.96h0a7.392,7.392,0,0,0,2.62-.46,13.251,13.251,0,0,0,2.74-1.3h0a3.375,3.375,0,0,1,1.04-.28.84.84,0,0,1,.8.48h0a1,1,0,0,1-.2,1.3A5.669,5.669,0,0,1,349.44-8h0a15.894,15.894,0,0,1-2.1.98,11.19,11.19,0,0,1-2.22.6,7.3,7.3,0,0,1-2.22.02,5.284,5.284,0,0,1-2.06-.76h0A4.278,4.278,0,0,1,339-10.12a8.775,8.775,0,0,1,.28-3.96h0a8.118,8.118,0,0,1,.68-1.54,6.915,6.915,0,0,1,1.06-1.42,6.859,6.859,0,0,1,1.38-1.1,4.8,4.8,0,0,1,1.68-.62h0a5.271,5.271,0,0,1,2.84.3,2.944,2.944,0,0,1,1.8,1.98h0a1.381,1.381,0,0,1,0,.66A.83.83,0,0,1,348.28-15.28Z" transform="translate(0 27.293)"/><path class="a" d="M366.76-18.96h0a5.124,5.124,0,0,1,2.02,1.32,6.332,6.332,0,0,1,1.26,1.98,7.024,7.024,0,0,1,.5,2.26,6.015,6.015,0,0,1-.26,2.16h0a13.159,13.159,0,0,1-1.12,2.2,10.018,10.018,0,0,1-1.56,1.92,7.37,7.37,0,0,1-2,1.36,5.818,5.818,0,0,1-2.48.52h0A4.8,4.8,0,0,1,360.36-6a5.41,5.41,0,0,1-1.76-1.96,7.634,7.634,0,0,1-.82-2.72,11.061,11.061,0,0,1,.06-3.04h0a11.091,11.091,0,0,1,.54-2.18,7.377,7.377,0,0,1,.98-1.88,5.472,5.472,0,0,1,1.38-1.34,3.135,3.135,0,0,1,1.78-.52h0a5.729,5.729,0,0,1,1.4.22,6.684,6.684,0,0,1,1.56.62h0A1.111,1.111,0,0,1,366.76-18.96Zm-1.52,2.92h0a12.419,12.419,0,0,1-1.02-.74,1.743,1.743,0,0,0-1.02-.46h0a1.366,1.366,0,0,0-.94.44,4.668,4.668,0,0,0-.8,1.02,8.783,8.783,0,0,0-.58,1.18,6.63,6.63,0,0,0-.32.96h0a9.854,9.854,0,0,0-.16,1.44,6.918,6.918,0,0,0,.12,1.66,3.845,3.845,0,0,0,.62,1.48,2.5,2.5,0,0,0,1.38.94h0a2.613,2.613,0,0,0,1.32-.02,4.781,4.781,0,0,0,1.5-.66,6.227,6.227,0,0,0,1.4-1.28,5.889,5.889,0,0,0,1.02-1.84h0a3.847,3.847,0,0,0,.02-2.42,2.844,2.844,0,0,0-1.54-1.82h0a.959.959,0,0,1-.56.2A1,1,0,0,1,365.24-16.04Z" transform="translate(0 27.293)"/><path class="a" d="M380.12-17.92h0q.04.64.14,1.58t.22,1.96q.12,1.02.26,2.02t.26,1.84h0l1.08-2.16q.64-1.28,1.34-2.46a12.5,12.5,0,0,1,1.44-2,1.993,1.993,0,0,1,1.34-.82h0a1.559,1.559,0,0,1,1.18.62,6.125,6.125,0,0,1,.94,1.5,14.85,14.85,0,0,1,.7,1.88q.3,1,.5,1.76h0q.16-.52.42-1.18t.56-1.36a14.689,14.689,0,0,1,.68-1.38,7.563,7.563,0,0,1,.82-1.2h0a3.361,3.361,0,0,1,1.12-.82,2.561,2.561,0,0,1,.88-.26h0a2.206,2.206,0,0,1,.86.22,6.163,6.163,0,0,1,1.02.58,5.887,5.887,0,0,1,.98.86,5.057,5.057,0,0,1,.74,1.02h0a11.552,11.552,0,0,1,.9,2.36,20.374,20.374,0,0,1,.5,2.44q.16,1.16.22,2.06t.1,1.26h0a1.945,1.945,0,0,1-.12.78.9.9,0,0,1-.44.42h0a1.292,1.292,0,0,1-.76.14.966.966,0,0,1-.52-.26,1.583,1.583,0,0,1-.32-.46,2.116,2.116,0,0,1-.16-.46h0q-.12-.92-.26-1.88t-.3-1.86q-.16-.9-.38-1.68a13.9,13.9,0,0,0-.46-1.38h0a3.7,3.7,0,0,0-.26-.42,4.692,4.692,0,0,0-.4-.5,3.8,3.8,0,0,0-.42-.4,2,2,0,0,0-.28-.2h0q-.4,0-.84.74a11.767,11.767,0,0,0-.84,1.78q-.4,1.04-.74,2.18t-.5,1.94h0a2.446,2.446,0,0,1-.4,1.54,1.106,1.106,0,0,1-.84.5h0a1.7,1.7,0,0,1-.94-.34,1.643,1.643,0,0,1-.66-.78h0q-.24-.64-.52-1.44t-.58-1.64q-.3-.84-.6-1.64t-.58-1.44h0a19.318,19.318,0,0,0-1.1,1.68q-.54.92-1.04,1.88t-.96,1.9q-.46.94-.86,1.66h0a5.234,5.234,0,0,1-.6.78,1.009,1.009,0,0,1-.76.34h0a1.09,1.09,0,0,1-.68-.3,4.076,4.076,0,0,1-.68-.74,5.97,5.97,0,0,1-.58-1,5.289,5.289,0,0,1-.38-1.12h0q-.32-1.72-.54-3.78t-.42-4.02h0a3.015,3.015,0,0,1,.18-1.26,1.266,1.266,0,0,1,.86-.78h0a1.188,1.188,0,0,1,1.04.2A1.524,1.524,0,0,1,380.12-17.92Z" transform="translate(0 27.293)"/><path class="a" d="M413.36-.64h0a1.362,1.362,0,0,1-.4.82.954.954,0,0,1-.8.34h0A1.325,1.325,0,0,1,411.12,0a1.459,1.459,0,0,1-.36-.8h0q0-1.52-.08-3.18t-.2-3.42h0a1.692,1.692,0,0,1-.94-.1,1.033,1.033,0,0,1-.58-.58h0a1.193,1.193,0,0,1,.08-1.2,3.7,3.7,0,0,1,1.16-1h0q-.2-1.48-.38-2.92t-.38-2.8h0a.807.807,0,0,1,.04-.44h0a2.067,2.067,0,0,1,.2-.38,1.118,1.118,0,0,1,.44-.34h0a1.2,1.2,0,0,1,1.18.32,2.592,2.592,0,0,1,.9,1.32h0q.12.76.26,1.74t.26,2.14h0a15.248,15.248,0,0,0,1.58-1.12,8.294,8.294,0,0,0,1.28-1.28,5.3,5.3,0,0,0,.82-1.42,3.017,3.017,0,0,0,.16-1.54h0a2.08,2.08,0,0,0-.6-1.22,2.31,2.31,0,0,0-1.64-.58h0a8.223,8.223,0,0,0-1.98.16,15.68,15.68,0,0,0-1.92.52,15.72,15.72,0,0,0-1.84.76q-.9.44-1.74.88h0a1.791,1.791,0,0,1-1.1.26.813.813,0,0,1-.7-.38h0a1.417,1.417,0,0,1,.06-1.44,4.24,4.24,0,0,1,1.3-1.2h0a17.848,17.848,0,0,1,1.82-.9,18.46,18.46,0,0,1,2.24-.8,14.711,14.711,0,0,1,2.4-.48,8.551,8.551,0,0,1,2.34.04,5.21,5.21,0,0,1,2.02.76,4.187,4.187,0,0,1,1.46,1.7h0a6.248,6.248,0,0,1,.38,3.38,7.094,7.094,0,0,1-1.2,2.8,11.1,11.1,0,0,1-2.2,2.28,26.508,26.508,0,0,1-2.62,1.82h0q.2,2.16.28,4.28T413.36-.64Z" transform="translate(0 27.293)"/><path class="a" d="M435.84-19.8h0q.16,1.12.26,2.38t.16,2.54q.06,1.28.06,2.48t-.04,2.16h0a4.026,4.026,0,0,1,1.54,1.56,1.647,1.647,0,0,1,.06,1.2h0a.92.92,0,0,1-.86.74,2.831,2.831,0,0,1-1.42-.42h0q-.56.4-1.28.86t-1.52.88a17.128,17.128,0,0,1-1.6.74,7.565,7.565,0,0,1-1.48.44h0a3.132,3.132,0,0,1-2.3-.48,3.381,3.381,0,0,1-1.38-2.04h0a5.036,5.036,0,0,1-.12-1.9,5.347,5.347,0,0,1,.6-1.88,5.755,5.755,0,0,1,1.3-1.62,5.925,5.925,0,0,1,1.94-1.12h0a3.428,3.428,0,0,1,.78-.2,5.324,5.324,0,0,1,1.04-.06,3.665,3.665,0,0,1,1.1.22,2.807,2.807,0,0,1,1.04.68h0q0-.68-.02-1.5t-.06-1.66q-.04-.84-.1-1.58t-.14-1.26h0a.814.814,0,0,0-.46-.74,1.38,1.38,0,0,0-.94.06h0a8.8,8.8,0,0,0-2.24,1.24,29.054,29.054,0,0,0-2.44,1.96h0a1,1,0,0,1-.82.32,1.218,1.218,0,0,1-.78-.36h0a1.182,1.182,0,0,1-.36-.74,1.312,1.312,0,0,1,.32-.9h0q.68-.72,1.52-1.48a15.7,15.7,0,0,1,1.76-1.38,10.791,10.791,0,0,1,1.88-1.02,5.57,5.57,0,0,1,1.92-.44h0a3.055,3.055,0,0,1,2.16.62A2.725,2.725,0,0,1,435.84-19.8Zm-4.64,8.6h0a3.457,3.457,0,0,0-1.1.5,4.86,4.86,0,0,0-1.04.92,3.583,3.583,0,0,0-.68,1.2,2.066,2.066,0,0,0-.02,1.3h0a.6.6,0,0,0,.34.36.854.854,0,0,0,.58.04h0a9.89,9.89,0,0,0,2.18-.78,7.51,7.51,0,0,0,1.94-1.26h0a1.264,1.264,0,0,0-.24-.62,6.921,6.921,0,0,0-.56-.76,4.077,4.077,0,0,0-.7-.66A.991.991,0,0,0,431.2-11.2Z" transform="translate(0 27.293)"/><path class="a" d="M446.76-18.2h0q.12.6.26,1.34t.3,1.52q.16.78.28,1.58t.2,1.52h0q.48-1.04,1.04-2.2a17.249,17.249,0,0,1,1.22-2.14,8.122,8.122,0,0,1,1.4-1.62,2.425,2.425,0,0,1,1.62-.64h0a2.922,2.922,0,0,1,2.22.96,8.292,8.292,0,0,1,1.52,2.38,16.959,16.959,0,0,1,.98,2.98q.36,1.56.6,2.76h0a1.329,1.329,0,0,1-.96,1.6h0q-.56.28-.84.08a.71.71,0,0,1-.32-.4h0a13.447,13.447,0,0,1-.5-1.68q-.3-1.2-.68-2.44a12.777,12.777,0,0,0-.86-2.16q-.48-.92-1.08-.84h0q-.72.04-1.28,1.08h0q-.48.84-.98,1.86t-.98,2.08q-.48,1.06-.94,2.12t-.86,1.94h0a1.437,1.437,0,0,1-.7.38,1.472,1.472,0,0,1-.86-.06h0a1.318,1.318,0,0,1-.64-.4.864.864,0,0,1-.24-.56h0q-.36-3.12-.74-5.68t-.98-5.24h0a2.481,2.481,0,0,1-.1-1.46q.18-.54,1.18-.42h0A2.023,2.023,0,0,1,446.76-18.2Z" transform="translate(0 27.293)"/><path class="a" d="M471.88-21.32h0a.543.543,0,0,1-.56.44q-.48.04-.8.04h0a18.856,18.856,0,0,0-2.06.2,19.073,19.073,0,0,0-2.22.48h0a1.329,1.329,0,0,1-1.04-.12,1.361,1.361,0,0,1-.68-1.12h0a.645.645,0,0,1,.24-.52,2.887,2.887,0,0,1,.56-.36h0a7.068,7.068,0,0,1,1.24-.42,10.8,10.8,0,0,1,1.46-.26,10.379,10.379,0,0,1,1.42-.06,4.905,4.905,0,0,1,1.12.14h0a2.334,2.334,0,0,1,1.02.6A1.1,1.1,0,0,1,471.88-21.32ZM470.96-8h0a3.656,3.656,0,0,1,.3,1.38,1.077,1.077,0,0,1-.42,1.02h0a1.045,1.045,0,0,1-1.2-.04,2.509,2.509,0,0,1-.96-1.08h0A7.617,7.617,0,0,1,468-8.78q-.24-1.22-.36-2.42t-.14-2.24q-.02-1.04-.02-1.56h0a2.372,2.372,0,0,1,.32-1.04,1.053,1.053,0,0,1,.72-.56h0a1.466,1.466,0,0,1,1.16.66,2.4,2.4,0,0,1,.4,1.54h0q0,.72.04,1.6t.16,1.76q.12.88.28,1.7A5.985,5.985,0,0,0,470.96-8Z" transform="translate(0 27.293)"/><path class="a" d="M488.04-18.96h0a5.124,5.124,0,0,1,2.02,1.32,6.332,6.332,0,0,1,1.26,1.98,7.024,7.024,0,0,1,.5,2.26,6.015,6.015,0,0,1-.26,2.16h0a13.159,13.159,0,0,1-1.12,2.2,10.018,10.018,0,0,1-1.56,1.92,7.37,7.37,0,0,1-2,1.36,5.818,5.818,0,0,1-2.48.52h0A4.8,4.8,0,0,1,481.64-6a5.41,5.41,0,0,1-1.76-1.96,7.634,7.634,0,0,1-.82-2.72,11.061,11.061,0,0,1,.06-3.04h0a11.091,11.091,0,0,1,.54-2.18,7.377,7.377,0,0,1,.98-1.88,5.471,5.471,0,0,1,1.38-1.34,3.135,3.135,0,0,1,1.78-.52h0a5.729,5.729,0,0,1,1.4.22,6.684,6.684,0,0,1,1.56.62h0A1.111,1.111,0,0,1,488.04-18.96Zm-1.52,2.92h0a12.419,12.419,0,0,1-1.02-.74,1.743,1.743,0,0,0-1.02-.46h0a1.366,1.366,0,0,0-.94.44,4.668,4.668,0,0,0-.8,1.02,8.783,8.783,0,0,0-.58,1.18,6.63,6.63,0,0,0-.32.96h0a9.854,9.854,0,0,0-.16,1.44,6.92,6.92,0,0,0,.12,1.66,3.845,3.845,0,0,0,.62,1.48,2.5,2.5,0,0,0,1.38.94h0a2.613,2.613,0,0,0,1.32-.02,4.781,4.781,0,0,0,1.5-.66,6.227,6.227,0,0,0,1.4-1.28,5.889,5.889,0,0,0,1.02-1.84h0a3.847,3.847,0,0,0,.02-2.42,2.844,2.844,0,0,0-1.54-1.82h0a.959.959,0,0,1-.56.2A1,1,0,0,1,486.52-16.04Z" transform="translate(0 27.293)"/><path class="a" d="M501.56-18.2h0q.12.6.26,1.34t.3,1.52q.16.78.28,1.58t.2,1.52h0q.48-1.04,1.04-2.2a17.252,17.252,0,0,1,1.22-2.14,8.121,8.121,0,0,1,1.4-1.62,2.425,2.425,0,0,1,1.62-.64h0a2.922,2.922,0,0,1,2.22.96,8.292,8.292,0,0,1,1.52,2.38,16.959,16.959,0,0,1,.98,2.98q.36,1.56.6,2.76h0a1.33,1.33,0,0,1-.96,1.6h0q-.56.28-.84.08a.71.71,0,0,1-.32-.4h0a13.453,13.453,0,0,1-.5-1.68q-.3-1.2-.68-2.44a12.78,12.78,0,0,0-.86-2.16q-.48-.92-1.08-.84h0q-.72.04-1.28,1.08h0q-.48.84-.98,1.86t-.98,2.08q-.48,1.06-.94,2.12t-.86,1.94h0a1.437,1.437,0,0,1-.7.38,1.472,1.472,0,0,1-.86-.06h0a1.318,1.318,0,0,1-.64-.4.864.864,0,0,1-.24-.56h0q-.36-3.12-.74-5.68t-.98-5.24h0a2.481,2.481,0,0,1-.1-1.46q.18-.54,1.18-.42h0A2.023,2.023,0,0,1,501.56-18.2Z" transform="translate(0 27.293)"/><path class="a" d="M527.44-16.96h0q-.08-.44-.16-.84a.64.64,0,0,0-.4-.52h0a2.909,2.909,0,0,0-1.44-.04,5.29,5.29,0,0,0-1.4.5,4.844,4.844,0,0,0-1.08.76,1.38,1.38,0,0,0-.48.74h0a1.381,1.381,0,0,0,.32,1.16,5.482,5.482,0,0,0,1.28,1.12h0q1.4.84,2.92,1.72a15.838,15.838,0,0,1,2.56,1.8h0a4.808,4.808,0,0,1,1.42,2.02,3.526,3.526,0,0,1-.18,2.5h0a3.588,3.588,0,0,1-1.64,1.76,11.042,11.042,0,0,1-2.64,1.06,18.16,18.16,0,0,1-2.88.52q-1.44.14-2.44.14h0a1.3,1.3,0,0,1-.58-.18,4.075,4.075,0,0,1-.64-.42,3.729,3.729,0,0,1-.52-.5.76.76,0,0,1-.22-.46h0a1,1,0,0,1,.64-1,3.261,3.261,0,0,1,1.32-.28h0q.96,0,2.06-.1a16.886,16.886,0,0,0,2.1-.32,9.2,9.2,0,0,0,1.8-.58,2.329,2.329,0,0,0,1.12-.92h0q.28-.48-.34-1.14a10.811,10.811,0,0,0-1.64-1.38q-1.02-.72-2.2-1.4t-2.02-1.24h0a6,6,0,0,1-1.44-1.34,4.019,4.019,0,0,1-.76-1.94h0a4.059,4.059,0,0,1,.44-2,6.064,6.064,0,0,1,1.26-1.7,6.182,6.182,0,0,1,1.78-1.18,4.931,4.931,0,0,1,2-.44h0a4.919,4.919,0,0,1,2.84.94,3.571,3.571,0,0,1,1.32,2.54h0a2.055,2.055,0,0,1-.18.92.81.81,0,0,1-.62.44h0a1.287,1.287,0,0,1-.9-.14A.774.774,0,0,1,527.44-16.96Z" transform="translate(0 27.293)"/></svg>