<svg xmlns="http://www.w3.org/2000/svg" width="236.548" height="78.497" viewBox="0 0 236.548 78.497"><defs><style>.a{fill:#fff;}</style></defs><g transform="translate(25.807 33.071)"><path class="a" d="M13.21-29.14V14.432H3V-29.14Z" transform="translate(-3 30.516)"/><path class="a" d="M41.466,10.47H37.2a4.377,4.377,0,0,1-2-.359,2.743,2.743,0,0,1-1.126-1.5h0l-.661-1.7q-1.171.987-2.252,1.735a14.289,14.289,0,0,1-2.237,1.271,11.08,11.08,0,0,1-2.462.778,15.215,15.215,0,0,1-2.9.254h0A12.755,12.755,0,0,1,19.7,10.4a8.091,8.091,0,0,1-2.958-1.63,7.166,7.166,0,0,1-1.877-2.677A9.617,9.617,0,0,1,14.2,2.4h0a7.72,7.72,0,0,1,.841-3.379,8.349,8.349,0,0,1,2.913-3.155,18.552,18.552,0,0,1,5.585-2.377A37.623,37.623,0,0,1,32.4-7.593h0V-8.909a5.67,5.67,0,0,0-1.126-3.933,4.151,4.151,0,0,0-3.2-1.211h0a8.517,8.517,0,0,0-2.7.359,12.176,12.176,0,0,0-1.877.807q-.826.449-1.607.807a4.428,4.428,0,0,1-1.862.359h0a2.823,2.823,0,0,1-1.637-.464,3.448,3.448,0,0,1-1.066-1.151h0l-1.682-2.9A18.946,18.946,0,0,1,21.9-19.929a22.031,22.031,0,0,1,7.372-1.211h0a13.532,13.532,0,0,1,5.09.912,10.957,10.957,0,0,1,3.844,2.542,11.1,11.1,0,0,1,2.417,3.873,13.867,13.867,0,0,1,.841,4.9h0ZM26.512,4.818h0a7.412,7.412,0,0,0,3.153-.628A9.6,9.6,0,0,0,32.4,2.156h0V-2.15a31.028,31.028,0,0,0-4.594.478,11.193,11.193,0,0,0-2.853.9A3.449,3.449,0,0,0,23.494.452a2.893,2.893,0,0,0-.405,1.5h0a2.593,2.593,0,0,0,.871,2.228A4.262,4.262,0,0,0,26.512,4.818Z" transform="translate(2.616 34.478)"/><path class="a" d="M37.241-16.124H46.55V14.888H37.241Zm10.39-8.493h0a4.883,4.883,0,0,1-.45,2.078,5.471,5.471,0,0,1-1.231,1.7,6.03,6.03,0,0,1-1.817,1.166,5.658,5.658,0,0,1-2.207.434h0a5.259,5.259,0,0,1-2.132-.434,6,6,0,0,1-1.757-1.166,5.382,5.382,0,0,1-1.2-1.7,5.025,5.025,0,0,1-.435-2.078h0a5.2,5.2,0,0,1,.435-2.123,5.509,5.509,0,0,1,1.2-1.735,5.627,5.627,0,0,1,1.757-1.166,5.421,5.421,0,0,1,2.132-.419h0a5.834,5.834,0,0,1,2.207.419,5.671,5.671,0,0,1,1.817,1.166,5.6,5.6,0,0,1,1.231,1.735A5.053,5.053,0,0,1,47.631-24.617Z" transform="translate(13.748 30.06)"/><path class="a" d="M48.36-29.94h9.309V14.828H48.36Z" transform="translate(19.745 30.119)"/><path class="a" d="M65.746,14.828H59.56V-29.94h9.309v17.046a14.207,14.207,0,0,1,3.949-2.736A12.123,12.123,0,0,1,78-16.662h0a9.847,9.847,0,0,1,4.5,1.047,10.126,10.126,0,0,1,3.573,3.065A15.5,15.5,0,0,1,88.433-7.6a23.809,23.809,0,0,1,.856,6.669h0a20.525,20.525,0,0,1-.976,6.46,16.209,16.209,0,0,1-2.733,5.144,12.578,12.578,0,0,1-4.2,3.409,11.929,11.929,0,0,1-5.42,1.226h0a10.416,10.416,0,0,1-2.477-.269,8.491,8.491,0,0,1-2.012-.763,8.636,8.636,0,0,1-1.682-1.181A19.126,19.126,0,0,1,68.3,11.6h0l-.33,1.555a1.986,1.986,0,0,1-.766,1.316,2.646,2.646,0,0,1-1.456.359ZM74.755-9.694h0a8.076,8.076,0,0,0-1.847.194,6.8,6.8,0,0,0-1.531.553,5.808,5.808,0,0,0-1.306.912,13.535,13.535,0,0,0-1.2,1.271h0V6.395a5.884,5.884,0,0,0,2.282,1.63,7.268,7.268,0,0,0,2.582.464h0a5.5,5.5,0,0,0,2.372-.508,4.828,4.828,0,0,0,1.877-1.63,8.662,8.662,0,0,0,1.246-2.916,18.192,18.192,0,0,0,.45-4.366h0a20.006,20.006,0,0,0-.36-4.127,8.48,8.48,0,0,0-1.006-2.706,3.9,3.9,0,0,0-1.546-1.48A4.451,4.451,0,0,0,74.755-9.694Z" transform="translate(25.361 30.119)"/><path class="a" d="M82.36-20.74h9.309V-1.062A5.4,5.4,0,0,0,92.72,2.5a3.8,3.8,0,0,0,3.093,1.256h0a6.658,6.658,0,0,0,2.868-.628,10.7,10.7,0,0,0,2.6-1.764h0v-22.1h9.309V10.272h-5.766a2.189,2.189,0,0,1-2.282-1.555h0l-.571-1.794a18.051,18.051,0,0,1-1.862,1.57,11.405,11.405,0,0,1-2.057,1.2,12.323,12.323,0,0,1-2.357.778,12.575,12.575,0,0,1-2.763.284h0a10.941,10.941,0,0,1-4.519-.882A9.3,9.3,0,0,1,85.093,7.4a10.747,10.747,0,0,1-2.042-3.738,15.4,15.4,0,0,1-.691-4.725h0Z" transform="translate(36.794 34.676)"/><path class="a" d="M134.288,14.828h-5.766a2.577,2.577,0,0,1-1.456-.389,2.076,2.076,0,0,1-.826-1.166h0l-.721-2.363a18.228,18.228,0,0,1-1.952,1.794,12.283,12.283,0,0,1-2.207,1.391,11.7,11.7,0,0,1-2.552.9,13.193,13.193,0,0,1-2.958.314h0a9.623,9.623,0,0,1-4.5-1.077,10.367,10.367,0,0,1-3.573-3.11,15.667,15.667,0,0,1-2.357-4.979,24.089,24.089,0,0,1-.856-6.714h0a20.861,20.861,0,0,1,.961-6.445,15.778,15.778,0,0,1,2.718-5.144,12.61,12.61,0,0,1,4.219-3.394,12.022,12.022,0,0,1,5.435-1.226h0a10.472,10.472,0,0,1,4.069.7,11.753,11.753,0,0,1,3.018,1.839h0v-15.7h9.309ZM119.094,8.189h0a8.076,8.076,0,0,0,1.847-.194,6.51,6.51,0,0,0,1.516-.553,6.617,6.617,0,0,0,1.306-.9,11.275,11.275,0,0,0,1.216-1.256h0V-7.87a6.155,6.155,0,0,0-2.3-1.63,7.147,7.147,0,0,0-2.567-.464h0a5.5,5.5,0,0,0-2.372.508,4.828,4.828,0,0,0-1.877,1.63,8.662,8.662,0,0,0-1.246,2.916,18.042,18.042,0,0,0-.45,4.336h0a20.007,20.007,0,0,0,.36,4.127,8.481,8.481,0,0,0,1.006,2.706,3.9,3.9,0,0,0,1.546,1.48A4.451,4.451,0,0,0,119.094,8.189Z" transform="translate(47.926 30.119)"/><path class="a" d="M151.283-17.053l-2.1,3.26a2.4,2.4,0,0,1-.766.807,2.016,2.016,0,0,1-1.036.239h0a3.321,3.321,0,0,1-1.321-.284l-1.426-.613a15.583,15.583,0,0,0-1.727-.613,7.738,7.738,0,0,0-2.192-.284h0a4.651,4.651,0,0,0-2.718.673A2.166,2.166,0,0,0,137.049-12h0a1.869,1.869,0,0,0,.616,1.435,5.652,5.652,0,0,0,1.637,1,22.634,22.634,0,0,0,2.312.822q1.291.389,2.643.867A23.584,23.584,0,0,1,146.9-6.75a9.885,9.885,0,0,1,2.312,1.585,7.076,7.076,0,0,1,1.637,2.288,7.72,7.72,0,0,1,.616,3.23h0a10.582,10.582,0,0,1-.841,4.247,9.021,9.021,0,0,1-2.507,3.349A11.873,11.873,0,0,1,144,10.131a18.6,18.6,0,0,1-5.63.778h0a17.2,17.2,0,0,1-3.183-.3A22.121,22.121,0,0,1,132.11,9.8a16.8,16.8,0,0,1-2.748-1.211,11.917,11.917,0,0,1-2.162-1.51h0l2.162-3.409a3.1,3.1,0,0,1,.931-.942,2.594,2.594,0,0,1,1.411-.344h0a2.946,2.946,0,0,1,1.456.359l1.4.778a11.663,11.663,0,0,0,1.757.778,7.646,7.646,0,0,0,2.537.359h0a6.47,6.47,0,0,0,1.832-.224,3.232,3.232,0,0,0,1.2-.613,2.449,2.449,0,0,0,.661-.867,2.43,2.43,0,0,0,.21-.987h0a2.01,2.01,0,0,0-.631-1.525A5.5,5.5,0,0,0,140.473-.59a20.19,20.19,0,0,0-2.327-.807q-1.306-.374-2.658-.852A21.393,21.393,0,0,1,132.83-3.4a9.14,9.14,0,0,1-2.327-1.7,7.917,7.917,0,0,1-1.652-2.527,9.3,9.3,0,0,1-.631-3.619h0A9.4,9.4,0,0,1,128.987-15a8.716,8.716,0,0,1,2.3-3.125,11.292,11.292,0,0,1,3.844-2.138,16.681,16.681,0,0,1,5.405-.792h0a17.448,17.448,0,0,1,3.258.3,16.7,16.7,0,0,1,2.958.837,14.189,14.189,0,0,1,2.522,1.271,12.105,12.105,0,0,1,2.012,1.6Z" transform="translate(59.278 34.517)"/></g><g transform="translate(60.057 38.491) rotate(180)"><path class="a" d="M24.78,20.529S5.749,17.569,4.365,25.068s10.7,13.423,10.7,13.423C3.766,35.924,0,27.438,0,24.081S1,6.717,25.963,7.11,54.1,4.744,60.044,0C60.844,30.792,24.78,20.529,24.78,20.529ZM33.159,8.9l.089.375,3.218,2.765-3.218,2.17,3.218,2.369s-1.733,1.838-3.4,3.589c1.378.133,2.862.223,4.41.223,7.208,0,12.632-1.812,16.136-5.389,2.658-2.712,4.2-6.51,4.614-11.31C53.911,6.742,48.7,8.708,33.159,8.9Z" transform="translate(0 0)"/></g></svg>