<svg xmlns="http://www.w3.org/2000/svg" width="152.548" height="50.497" viewBox="0 0 152.548 50.497"><defs><style>.a{fill:#f2f2f2;}</style></defs><g transform="translate(16.643 21.274)"><path class="a" d="M9.584-29.14V-1.11H3V-29.14Z" transform="translate(-3 30.025)"/><path class="a" d="M31.784-.805h-2.75a2.829,2.829,0,0,1-1.288-.231A1.765,1.765,0,0,1,27.02-2h0l-.426-1.1q-.755.635-1.452,1.116a9.221,9.221,0,0,1-1.443.818,7.159,7.159,0,0,1-1.588.5A9.835,9.835,0,0,1,20.242-.5h0a8.244,8.244,0,0,1-2.5-.356A5.222,5.222,0,0,1,15.836-1.9a4.61,4.61,0,0,1-1.21-1.722A6.173,6.173,0,0,1,14.2-6h0a4.957,4.957,0,0,1,.542-2.174,5.376,5.376,0,0,1,1.878-2.03,11.979,11.979,0,0,1,3.6-1.529,24.32,24.32,0,0,1,5.713-.693h0v-.846a3.641,3.641,0,0,0-.726-2.53,2.681,2.681,0,0,0-2.062-.779h0a5.5,5.5,0,0,0-1.743.231,7.863,7.863,0,0,0-1.21.519q-.533.289-1.036.519a2.862,2.862,0,0,1-1.2.231h0a1.824,1.824,0,0,1-1.055-.3,2.22,2.22,0,0,1-.687-.741h0L15.13-17.985a12.225,12.225,0,0,1,4.038-2.376,14.24,14.24,0,0,1,4.754-.779h0a8.746,8.746,0,0,1,3.282.587,7.067,7.067,0,0,1,2.479,1.635,7.138,7.138,0,0,1,1.559,2.491,8.9,8.9,0,0,1,.542,3.155h0ZM22.14-4.441h0a4.79,4.79,0,0,0,2.033-.4,6.192,6.192,0,0,0,1.762-1.308h0v-2.77a20.057,20.057,0,0,0-2.963.308,7.231,7.231,0,0,0-1.84.577,2.222,2.222,0,0,0-.939.789,1.857,1.857,0,0,0-.261.962h0a1.666,1.666,0,0,0,.562,1.433A2.754,2.754,0,0,0,22.14-4.441Z" transform="translate(-3.355 29.72)"/><path class="a" d="M36.942-21.1h6v19.95h-6Zm6.7-5.464h0a3.135,3.135,0,0,1-.29,1.337,3.52,3.52,0,0,1-.794,1.1,3.89,3.89,0,0,1-1.172.75,3.657,3.657,0,0,1-1.423.279h0a3.4,3.4,0,0,1-1.375-.279,3.867,3.867,0,0,1-1.133-.75,3.462,3.462,0,0,1-.775-1.1,3.226,3.226,0,0,1-.281-1.337h0a3.339,3.339,0,0,1,.281-1.366,3.544,3.544,0,0,1,.775-1.116,3.629,3.629,0,0,1,1.133-.75,3.5,3.5,0,0,1,1.375-.269h0a3.771,3.771,0,0,1,1.423.269,3.658,3.658,0,0,1,1.172.75,3.6,3.6,0,0,1,.794,1.116A3.244,3.244,0,0,1,43.643-26.559Z" transform="translate(-4.06 30.06)"/><path class="a" d="M48.36-29.94h6v28.8h-6Z" transform="translate(-4.44 30.055)"/><path class="a" d="M63.549-1.141H59.56v-28.8h6v10.966a9.163,9.163,0,0,1,2.547-1.76A7.835,7.835,0,0,1,71.45-21.4h0a6.363,6.363,0,0,1,2.9.673,6.526,6.526,0,0,1,2.3,1.972,9.957,9.957,0,0,1,1.52,3.184,15.281,15.281,0,0,1,.552,4.29h0A13.174,13.174,0,0,1,78.1-7.124,10.419,10.419,0,0,1,76.34-3.815a8.108,8.108,0,0,1-2.711,2.193,7.709,7.709,0,0,1-3.5.789h0a6.733,6.733,0,0,1-1.6-.173,5.484,5.484,0,0,1-1.3-.491,5.57,5.57,0,0,1-1.084-.76,12.318,12.318,0,0,1-.959-.962h0l-.213,1a1.277,1.277,0,0,1-.494.846,1.71,1.71,0,0,1-.939.231Zm5.81-15.775h0a5.22,5.22,0,0,0-1.191.125,4.395,4.395,0,0,0-.988.356,3.746,3.746,0,0,0-.842.587,8.717,8.717,0,0,0-.775.818h0v8.465a3.794,3.794,0,0,0,1.472,1.048,4.7,4.7,0,0,0,1.665.3h0a3.557,3.557,0,0,0,1.53-.327,3.111,3.111,0,0,0,1.21-1.048,5.565,5.565,0,0,0,.8-1.876,11.675,11.675,0,0,0,.29-2.809h0a12.839,12.839,0,0,0-.232-2.655,5.447,5.447,0,0,0-.649-1.741,2.512,2.512,0,0,0-1-.952A2.876,2.876,0,0,0,69.359-16.916Z" transform="translate(-4.795 30.055)"/><path class="a" d="M82.36-20.74h6V-8.081a3.465,3.465,0,0,0,.678,2.289,2.456,2.456,0,0,0,1.995.808h0a4.3,4.3,0,0,0,1.849-.4A6.9,6.9,0,0,0,94.56-6.523h0V-20.74h6V-.79H96.845a1.411,1.411,0,0,1-1.472-1h0l-.368-1.154a11.634,11.634,0,0,1-1.2,1.01,7.36,7.36,0,0,1-1.327.77,7.961,7.961,0,0,1-1.52.5,8.129,8.129,0,0,1-1.782.183h0a7.071,7.071,0,0,1-2.914-.568,5.993,5.993,0,0,1-2.14-1.587,6.909,6.909,0,0,1-1.317-2.4,9.886,9.886,0,0,1-.445-3.04h0Z" transform="translate(-5.519 29.705)"/><path class="a" d="M123.732-1.141h-3.718a1.665,1.665,0,0,1-.939-.25,1.336,1.336,0,0,1-.533-.75h0l-.465-1.52a11.745,11.745,0,0,1-1.259,1.154,7.924,7.924,0,0,1-1.423.895,7.561,7.561,0,0,1-1.646.577,8.528,8.528,0,0,1-1.907.2h0a6.218,6.218,0,0,1-2.9-.693,6.681,6.681,0,0,1-2.3-2,10.068,10.068,0,0,1-1.52-3.2,15.46,15.46,0,0,1-.552-4.319h0a13.389,13.389,0,0,1,.62-4.146,10.142,10.142,0,0,1,1.753-3.309,8.128,8.128,0,0,1,2.721-2.184,7.769,7.769,0,0,1,3.505-.789h0a6.768,6.768,0,0,1,2.624.452,7.583,7.583,0,0,1,1.946,1.183h0v-10.1h6Zm-9.8-4.271h0a5.22,5.22,0,0,0,1.191-.125,4.2,4.2,0,0,0,.978-.356,4.267,4.267,0,0,0,.842-.577,7.261,7.261,0,0,0,.784-.808h0v-8.465a3.969,3.969,0,0,0-1.481-1.048,4.619,4.619,0,0,0-1.656-.3h0a3.557,3.557,0,0,0-1.53.327,3.112,3.112,0,0,0-1.21,1.048,5.565,5.565,0,0,0-.8,1.876,11.579,11.579,0,0,0-.29,2.79h0a12.839,12.839,0,0,0,.232,2.655,5.447,5.447,0,0,0,.649,1.741,2.512,2.512,0,0,0,1,.952A2.876,2.876,0,0,0,113.933-5.411Z" transform="translate(-6.223 30.055)"/><path class="a" d="M142.731-18.482l-1.356,2.1a1.547,1.547,0,0,1-.494.519,1.3,1.3,0,0,1-.668.154h0a2.146,2.146,0,0,1-.852-.183l-.92-.394a10.064,10.064,0,0,0-1.113-.394,5,5,0,0,0-1.414-.183h0a3.005,3.005,0,0,0-1.753.433,1.392,1.392,0,0,0-.61,1.2h0a1.2,1.2,0,0,0,.4.923,3.647,3.647,0,0,0,1.055.644,14.619,14.619,0,0,0,1.491.529q.833.25,1.7.558a15.231,15.231,0,0,1,1.7.721,6.376,6.376,0,0,1,1.491,1.02,4.552,4.552,0,0,1,1.055,1.472,4.956,4.956,0,0,1,.4,2.078h0a6.793,6.793,0,0,1-.542,2.732A5.8,5.8,0,0,1,140.688-2.4a7.663,7.663,0,0,1-2.653,1.4,12.024,12.024,0,0,1-3.631.5h0a11.12,11.12,0,0,1-2.053-.192,14.294,14.294,0,0,1-1.985-.519,10.85,10.85,0,0,1-1.772-.779,7.686,7.686,0,0,1-1.394-.972h0l1.394-2.193a2,2,0,0,1,.6-.606,1.676,1.676,0,0,1,.91-.221h0a1.9,1.9,0,0,1,.939.231l.9.5a7.531,7.531,0,0,0,1.133.5,4.942,4.942,0,0,0,1.636.231h0A4.182,4.182,0,0,0,135.9-4.66a2.087,2.087,0,0,0,.775-.394,1.576,1.576,0,0,0,.426-.558,1.56,1.56,0,0,0,.136-.635h0a1.292,1.292,0,0,0-.407-.981,3.546,3.546,0,0,0-1.065-.664,13.041,13.041,0,0,0-1.5-.519q-.842-.24-1.714-.548a13.813,13.813,0,0,1-1.714-.741,5.894,5.894,0,0,1-1.5-1.1,5.092,5.092,0,0,1-1.065-1.626,5.969,5.969,0,0,1-.407-2.328h0a6.031,6.031,0,0,1,.494-2.414,5.608,5.608,0,0,1,1.481-2.01,7.287,7.287,0,0,1,2.479-1.376,10.782,10.782,0,0,1,3.486-.51h0a11.279,11.279,0,0,1,2.1.192,10.793,10.793,0,0,1,1.907.539,9.159,9.159,0,0,1,1.627.818,7.8,7.8,0,0,1,1.3,1.029Z" transform="translate(-6.942 29.717)"/></g><g transform="translate(38.73 24.761) rotate(180)"><path class="a" d="M15.98,13.206S3.707,11.3,2.815,16.126s6.9,8.635,6.9,8.635C2.428,23.11,0,17.651,0,15.491S.644,4.321,16.743,4.574,34.889,3.052,38.722,0C39.238,19.808,15.98,13.206,15.98,13.206Zm5.4-7.478.057.241,2.075,1.779-2.075,1.4,2.075,1.524S22.4,11.85,21.324,12.976c.889.086,1.846.143,2.844.143,4.649,0,8.146-1.166,10.406-3.467a11.44,11.44,0,0,0,2.975-7.276C34.766,4.337,31.4,5.6,21.384,5.728Z" transform="translate(0 0)"/></g></svg>