<svg xmlns="http://www.w3.org/2000/svg" width="545.36" height="80.117" viewBox="0 0 545.36 80.117"><defs><style>.a,.b{fill:#fff;}.b{font-size:60px;font-family:Lato-Black, Lato;font-weight:800;}</style></defs><g transform="translate(78.812 -8)"><g transform="translate(261 8)"><g transform="translate(22.425 28.994)"><path class="a" d="M11.872-29.14v38.2H3v-38.2Z" transform="translate(-3 30.346)"/><path class="a" d="M37.893,6.573H34.188a3.774,3.774,0,0,1-1.735-.315,2.4,2.4,0,0,1-.979-1.311h0L30.9,3.453q-1.018.865-1.957,1.521A12.388,12.388,0,0,1,27,6.088a9.567,9.567,0,0,1-2.14.682,13.107,13.107,0,0,1-2.518.223h0a10.992,10.992,0,0,1-3.366-.485A7.013,7.013,0,0,1,16.4,5.079a6.283,6.283,0,0,1-1.631-2.347A8.5,8.5,0,0,1,14.2-.506h0a6.818,6.818,0,0,1,.731-2.963,7.3,7.3,0,0,1,2.531-2.766,16.047,16.047,0,0,1,4.853-2.084,32.418,32.418,0,0,1,7.7-.944h0v-1.154a5,5,0,0,0-.979-3.448,3.59,3.59,0,0,0-2.779-1.062h0a7.339,7.339,0,0,0-2.348.315,10.531,10.531,0,0,0-1.631.708q-.718.393-1.4.708a3.818,3.818,0,0,1-1.618.315h0a2.437,2.437,0,0,1-1.422-.406,3.013,3.013,0,0,1-.926-1.009h0L15.452-16.84a16.432,16.432,0,0,1,5.44-3.238A18.99,18.99,0,0,1,27.3-21.14h0a11.666,11.666,0,0,1,4.423.8,9.515,9.515,0,0,1,3.34,2.229,9.745,9.745,0,0,1,2.1,3.4,12.255,12.255,0,0,1,.731,4.3h0ZM24.9,1.618h0a6.392,6.392,0,0,0,2.74-.551A8.349,8.349,0,0,0,30.013-.715h0V-4.491a26.731,26.731,0,0,0-3.992.42,9.665,9.665,0,0,0-2.479.787A3,3,0,0,0,22.276-2.21,2.554,2.554,0,0,0,21.924-.9h0a2.284,2.284,0,0,0,.757,1.953A3.679,3.679,0,0,0,24.9,1.618Z" transform="translate(0.412 32.834)"/><path class="a" d="M37.131-17.842H45.22V9.347H37.131Zm9.028-7.446h0a4.313,4.313,0,0,1-.391,1.822,4.8,4.8,0,0,1-1.07,1.494,5.235,5.235,0,0,1-1.579,1.023,4.879,4.879,0,0,1-1.918.38h0a4.535,4.535,0,0,1-1.853-.38,5.206,5.206,0,0,1-1.526-1.023,4.719,4.719,0,0,1-1.044-1.494,4.439,4.439,0,0,1-.378-1.822h0a4.6,4.6,0,0,1,.378-1.862,4.831,4.831,0,0,1,1.044-1.521,4.886,4.886,0,0,1,1.526-1.023A4.675,4.675,0,0,1,41.2-30.06h0a5.03,5.03,0,0,1,1.918.367A4.923,4.923,0,0,1,44.7-28.67a4.907,4.907,0,0,1,1.07,1.521A4.463,4.463,0,0,1,46.159-25.288Z" transform="translate(7.176 30.06)"/><path class="a" d="M48.36-29.94h8.089V9.31H48.36Z" transform="translate(10.82 30.097)"/><path class="a" d="M64.935,9.31H59.56V-29.94h8.089V-15a12.344,12.344,0,0,1,3.431-2.4,10.454,10.454,0,0,1,4.5-.9h0a8.494,8.494,0,0,1,3.914.918A8.821,8.821,0,0,1,82.6-14.694a13.637,13.637,0,0,1,2.048,4.339,21.05,21.05,0,0,1,.744,5.847h0a18.143,18.143,0,0,1-.848,5.663,14.253,14.253,0,0,1-2.374,4.51,10.949,10.949,0,0,1-3.653,2.989,10.289,10.289,0,0,1-4.71,1.075h0a8.974,8.974,0,0,1-2.153-.236,7.338,7.338,0,0,1-1.748-.669,7.5,7.5,0,0,1-1.461-1.036,16.7,16.7,0,0,1-1.292-1.311h0l-.287,1.363A1.744,1.744,0,0,1,66.2,9a2.284,2.284,0,0,1-1.266.315Zm7.828-21.5h0a6.957,6.957,0,0,0-1.6.17,5.878,5.878,0,0,0-1.331.485,5.046,5.046,0,0,0-1.135.8A11.823,11.823,0,0,0,67.649-9.62h0V1.916a5.114,5.114,0,0,0,1.983,1.429,6.266,6.266,0,0,0,2.244.406h0a4.747,4.747,0,0,0,2.061-.446,4.206,4.206,0,0,0,1.631-1.429A7.629,7.629,0,0,0,76.651-.68a16.086,16.086,0,0,0,.391-3.828h0a17.692,17.692,0,0,0-.313-3.618,7.476,7.476,0,0,0-.874-2.373,3.4,3.4,0,0,0-1.344-1.3A3.839,3.839,0,0,0,72.763-12.19Z" transform="translate(14.232 30.097)"/><path class="a" d="M82.36-20.74h8.089V-3.488a4.76,4.76,0,0,0,.913,3.12A3.291,3.291,0,0,0,94.05.733h0A5.742,5.742,0,0,0,96.542.183,9.293,9.293,0,0,0,98.8-1.364h0V-20.74h8.089V6.449h-5.01a1.9,1.9,0,0,1-1.983-1.363h0l-.5-1.573a15.72,15.72,0,0,1-1.618,1.376,9.89,9.89,0,0,1-1.787,1.049,10.642,10.642,0,0,1-2.048.682,10.834,10.834,0,0,1-2.4.249h0A9.434,9.434,0,0,1,87.618,6.1a8.083,8.083,0,0,1-2.883-2.163A9.448,9.448,0,0,1,82.96.655a13.616,13.616,0,0,1-.6-4.143h0Z" transform="translate(21.179 32.958)"/><path class="a" d="M130.392,9.31h-5.01a2.224,2.224,0,0,1-1.266-.341,1.82,1.82,0,0,1-.718-1.023h0l-.626-2.071a15.893,15.893,0,0,1-1.7,1.573,10.659,10.659,0,0,1-1.918,1.219,10.111,10.111,0,0,1-2.218.787,11.367,11.367,0,0,1-2.57.275h0a8.3,8.3,0,0,1-3.914-.944,9.032,9.032,0,0,1-3.105-2.727A13.789,13.789,0,0,1,105.3,1.693a21.3,21.3,0,0,1-.744-5.886h0a18.44,18.44,0,0,1,.835-5.65,13.875,13.875,0,0,1,2.361-4.51,10.976,10.976,0,0,1,3.666-2.976,10.37,10.37,0,0,1,4.723-1.075h0a9.028,9.028,0,0,1,3.536.616,10.2,10.2,0,0,1,2.622,1.612h0V-29.94h8.089Zm-13.2-5.821h0a6.957,6.957,0,0,0,1.6-.17,5.624,5.624,0,0,0,1.318-.485,5.748,5.748,0,0,0,1.135-.787A9.846,9.846,0,0,0,122.3.946h0V-10.59a5.349,5.349,0,0,0-2-1.429,6.161,6.161,0,0,0-2.231-.406h0a4.747,4.747,0,0,0-2.061.446,4.206,4.206,0,0,0-1.631,1.429A7.629,7.629,0,0,0,113.3-7.995a15.954,15.954,0,0,0-.391,3.8h0a17.693,17.693,0,0,0,.313,3.618A7.476,7.476,0,0,0,114.1,1.8a3.4,3.4,0,0,0,1.344,1.3A3.839,3.839,0,0,0,117.189,3.489Z" transform="translate(27.942 30.097)"/><path class="a" d="M148.127-17.547,146.3-14.689a2.1,2.1,0,0,1-.665.708,1.739,1.739,0,0,1-.9.21h0a2.864,2.864,0,0,1-1.148-.249l-1.239-.537a13.462,13.462,0,0,0-1.5-.537,6.668,6.668,0,0,0-1.9-.249h0a4.014,4.014,0,0,0-2.361.59,1.9,1.9,0,0,0-.822,1.639h0a1.646,1.646,0,0,0,.535,1.259,4.9,4.9,0,0,0,1.422.878,19.553,19.553,0,0,0,2.009.721q1.122.341,2.3.76a20.4,20.4,0,0,1,2.3.983,8.588,8.588,0,0,1,2.009,1.39,6.2,6.2,0,0,1,1.422,2.006,6.821,6.821,0,0,1,.535,2.832h0a9.35,9.35,0,0,1-.731,3.723,7.9,7.9,0,0,1-2.179,2.937A10.288,10.288,0,0,1,141.8,6.286a16.031,16.031,0,0,1-4.893.682h0a14.818,14.818,0,0,1-2.766-.262A19.085,19.085,0,0,1,131.466,6a14.535,14.535,0,0,1-2.388-1.062A10.355,10.355,0,0,1,127.2,3.612h0L129.079.623a2.711,2.711,0,0,1,.809-.826,2.238,2.238,0,0,1,1.226-.3h0a2.542,2.542,0,0,1,1.266.315l1.213.682a10.09,10.09,0,0,0,1.526.682,6.589,6.589,0,0,0,2.2.315h0a5.575,5.575,0,0,0,1.592-.2A2.8,2.8,0,0,0,139.96.754a2.145,2.145,0,0,0,.574-.76,2.146,2.146,0,0,0,.183-.865h0a1.77,1.77,0,0,0-.548-1.337,4.771,4.771,0,0,0-1.435-.9,17.438,17.438,0,0,0-2.022-.708q-1.135-.328-2.309-.747a18.5,18.5,0,0,1-2.309-1.009,7.946,7.946,0,0,1-2.022-1.494,6.947,6.947,0,0,1-1.435-2.216,8.218,8.218,0,0,1-.548-3.172h0a8.3,8.3,0,0,1,.665-3.29,7.638,7.638,0,0,1,2-2.74,9.789,9.789,0,0,1,3.34-1.875,14.377,14.377,0,0,1,4.7-.695h0a15.03,15.03,0,0,1,2.831.262,14.415,14.415,0,0,1,2.57.734,12.287,12.287,0,0,1,2.192,1.114,10.535,10.535,0,0,1,1.748,1.4Z" transform="translate(34.84 32.859)"/></g><g transform="translate(52.186 33.746) rotate(180)"><path class="a" d="M21.532,18S5,15.4,3.793,21.978s9.3,11.768,9.3,11.768C3.272,31.5,0,24.056,0,21.113S.868,5.889,22.56,6.234,47.011,4.16,52.175,0C52.87,27,21.532,18,21.532,18ZM28.814,7.807l.077.329,2.8,2.424-2.8,1.9,2.8,2.077s-1.506,1.611-2.954,3.146c1.2.117,2.487.2,3.832.2,6.264,0,10.976-1.589,14.021-4.725C48.9,10.777,50.238,7.447,50.6,3.239,46.845,5.911,42.316,7.635,28.814,7.807Z" transform="translate(0 0)"/></g></g><text class="b" transform="translate(-78.812 75.117)"><tspan x="0" y="0">Welcome to </tspan></text></g></svg>